<svg width="96" height="96" viewBox="0 0 96 96" fill="none" xmlns="http://www.w3.org/2000/svg">
<path d="M25.568 19.912L86.84 16.772L73.32 9.068C69.98 6.796 65.936 5.716 61.944 5.996L13.588 7.932L25.568 19.912ZM20 25.656L8 13.656V67.576C8 69.96 8.696 72.26 10.016 74.232L20 89.212V25.656ZM28 27.8V91.756L88.248 87.992C90.356 87.86 92 86.112 92 84V24.52L28 27.8ZM81.832 39.36C79.708 39.8 79.708 39.8 79.708 41.94C79.708 53.436 79.7 64.932 79.728 76.428C79.728 77.228 79.512 77.716 78.752 77.956C77.388 78.388 76.052 78.948 74.66 79.24C72.432 79.704 70.472 79.092 69.136 77.18C67.292 74.544 65.496 71.876 63.744 69.18C59.672 62.912 55.636 56.616 51.588 50.332C51.5 50.196 51.4 50.072 51.168 49.764C51.12 50.192 51.068 50.448 51.068 50.704C51.064 58.528 51.072 66.356 51.048 74.18C51.044 74.872 51.268 75.152 51.936 75.28C53.436 75.568 54.924 75.928 56.404 76.256C56.224 77.88 55.324 78.888 53.66 79.164C52.44 79.364 51.192 79.392 49.952 79.464C46.952 79.644 43.944 79.78 40.948 79.992C40.076 80.056 39.9 79.692 40.048 78.98C40.232 78.092 40.684 77.448 41.644 77.216C42.588 76.988 43.52 76.692 44.456 76.428C44.456 65.172 44.456 53.976 44.456 42.7C43.032 42.576 41.64 42.452 40.26 42.332C39.712 40.396 40.92 38.608 42.964 38.444C46.644 38.148 50.344 38.032 54.012 37.628C55.58 37.452 56.316 38.028 57.1 39.228C62.292 47.176 67.552 55.08 72.792 62.996C72.984 63.288 73.196 63.572 73.572 64.112C73.572 56.108 73.572 48.4 73.572 40.632C72.292 40.484 71.068 40.308 69.836 40.216C69.164 40.168 69 39.864 69.076 39.272C69.24 38.004 70.236 36.852 71.572 36.752C75.636 36.448 79.712 36.24 83.764 36C84.352 38 83.784 38.956 81.832 39.36Z" fill="#EC0280"/>
</svg>
